<svg width="566" height="566" viewBox="0 0 566 566" fill="none" xmlns="http://www.w3.org/2000/svg">
<path d="M262.184 15.9306C274.469 6.52886 291.531 6.52886 303.816 15.9306L315.518 24.8859C324.171 31.508 335.459 33.618 345.919 30.5689L360.066 26.4455C374.918 22.1165 390.828 28.2802 398.887 41.485L406.564 54.0627C412.24 63.3634 422.003 69.4084 432.859 70.3441L447.54 71.6095C462.953 72.9379 475.562 84.4328 478.307 99.6573L480.922 114.159C482.855 124.882 489.775 134.046 499.56 138.84L512.792 145.323C526.684 152.129 534.289 167.403 531.349 182.591L528.549 197.058C526.478 207.755 529.62 218.8 537.013 226.805L547.009 237.63C557.505 248.996 559.079 265.985 550.851 279.086L543.013 291.564C537.218 300.791 536.158 312.225 540.16 322.359L545.571 336.065C551.252 350.454 546.582 366.865 534.177 376.109L522.362 384.913C513.624 391.423 508.506 401.703 508.576 412.598L508.671 427.333C508.77 442.803 498.488 456.419 483.581 460.557L469.383 464.498C458.884 467.413 450.398 475.149 446.527 485.334L441.292 499.109C435.797 513.569 421.29 522.552 405.895 521.025L391.232 519.572C380.389 518.497 369.682 522.645 362.393 530.744L352.536 541.697C342.187 553.196 325.416 556.331 311.612 549.347L298.464 542.694C288.741 537.775 277.259 537.775 267.536 542.694L254.388 549.347C240.584 556.331 223.813 553.196 213.464 541.697L203.607 530.744C196.318 522.645 185.611 518.497 174.768 519.572L160.105 521.025C144.71 522.552 130.203 513.569 124.708 499.109L119.473 485.334C115.602 475.149 107.116 467.413 96.6171 464.498L82.4187 460.557C67.5125 456.419 57.2301 442.803 57.3294 427.333L57.424 412.598C57.4939 401.703 52.3755 391.423 43.6383 384.913L31.8225 376.109C19.4176 366.865 14.7483 350.454 20.4292 336.065L25.8403 322.359C29.8415 312.225 28.782 300.791 22.9866 291.564L15.1492 279.086C6.92107 265.985 8.49539 248.996 18.9906 237.63L28.9874 226.805C36.3796 218.8 39.5221 207.755 37.4512 197.058L34.6507 182.591C31.7105 167.403 39.3159 152.129 53.208 145.323L66.4404 138.84C76.2251 134.046 83.1451 124.882 85.0785 114.159L87.6931 99.6573C90.438 84.4328 103.047 72.9379 118.46 71.6095L133.141 70.3441C143.997 69.4084 153.76 63.3634 159.436 54.0627L167.113 41.485C175.172 28.2802 191.082 22.1165 205.934 26.4455L220.081 30.5689C230.542 33.618 241.829 31.508 250.482 24.8859L262.184 15.9306Z" fill="#43A4D7"/>
<path d="M263.552 32.8833C275.03 24.0996 290.97 24.0996 302.448 32.8833L313.479 41.3256C321.563 47.5123 332.109 49.4836 341.882 46.635L355.218 42.7478C369.093 38.7034 383.958 44.4618 391.487 56.7985L398.724 68.6558C404.027 77.345 413.148 82.9925 423.29 83.8667L437.13 85.0596C451.53 86.3008 463.31 97.0399 465.875 111.263L468.339 124.934C470.146 134.952 476.611 143.514 485.752 147.993L498.227 154.104C511.205 160.463 518.311 174.733 515.564 188.922L512.924 202.56C510.989 212.555 513.925 222.873 520.831 230.352L530.255 240.557C540.061 251.175 541.531 267.048 533.844 279.287L526.456 291.05C521.041 299.671 520.051 310.353 523.79 319.822L528.891 332.742C534.198 346.185 529.836 361.517 518.246 370.153L507.108 378.453C498.945 384.535 494.163 394.139 494.228 404.318L494.317 418.209C494.41 432.662 484.804 445.383 470.877 449.249L457.492 452.964C447.684 455.687 439.756 462.915 436.139 472.43L431.204 485.416C426.07 498.926 412.517 507.317 398.135 505.891L384.311 504.521C374.181 503.517 364.178 507.392 357.368 514.959L348.076 525.284C338.407 536.028 322.738 538.957 309.842 532.432L297.447 526.16C288.364 521.564 277.636 521.564 268.553 526.16L256.158 532.432C243.262 538.957 227.593 536.028 217.924 525.284L208.632 514.959C201.823 507.392 191.819 503.517 181.689 504.521L167.865 505.891C153.483 507.317 139.93 498.926 134.796 485.416L129.861 472.43C126.244 462.915 118.316 455.687 108.508 452.964L95.1225 449.249C81.1962 445.383 71.5899 432.662 71.6826 418.209L71.7718 404.318C71.8372 394.139 67.0553 384.535 58.8925 378.453L47.7535 370.153C36.1642 361.517 31.8018 346.185 37.1092 332.742L42.2103 319.822C45.9485 310.353 44.9587 299.671 39.5443 291.05L32.1558 279.287C24.4686 267.048 25.9394 251.175 35.7447 240.557L45.1688 230.352C52.075 222.873 55.0109 212.555 53.0762 202.56L50.4361 188.922C47.6892 174.733 54.7946 160.463 67.7734 154.104L80.2478 147.993C89.3892 143.514 95.8543 134.952 97.6606 124.934L100.125 111.263C102.69 97.0399 114.47 86.3008 128.87 85.0596L142.71 83.8667C152.852 82.9925 161.973 77.345 167.276 68.6558L174.513 56.7985C182.042 44.4618 196.906 38.7034 210.782 42.7478L224.118 46.635C233.891 49.4836 244.437 47.5123 252.521 41.3256L263.552 32.8833Z" fill="#1383BF"/>
</svg>
